<svg width="20" height="20" viewBox="0 0 20 20" fill="none" xmlns="http://www.w3.org/2000/svg">
<path d="M20 0.838087L19.1742 0.00759888L16.916 2.25305L9.59496 1.40339L0 10.9858L8.99492 19.9925L18.5898 10.41L17.7485 3.07686L20 0.838087ZM17.3618 9.98131L8.99597 18.3362L1.65625 10.9869L10.0221 2.63195L15.8543 3.30882L14.6815 4.475C14.4724 4.38205 14.2444 4.33271 14.0086 4.33271C13.5664 4.33271 13.1506 4.50478 12.8377 4.81728C12.1912 5.46293 12.1905 6.51421 12.8361 7.16071C13.1492 7.47419 13.5656 7.64681 14.0086 7.64681C14.4509 7.64681 14.8667 7.47473 15.1796 7.16224C15.6832 6.65931 15.7948 5.91038 15.5145 5.29826L16.6904 4.12901L17.3618 9.98131ZM14.352 6.33358C14.2603 6.42521 14.1383 6.47568 14.0086 6.47568C13.8787 6.47568 13.7566 6.42505 13.6648 6.33315C13.4755 6.14359 13.4757 5.83527 13.6652 5.64593C13.757 5.55427 13.879 5.50384 14.0086 5.50384C14.1386 5.50384 14.2607 5.55447 14.3525 5.64636C14.5418 5.83593 14.5416 6.14425 14.352 6.33358V6.33358Z" fill="#0061DF"/>
</svg>
