<svg width="20" height="20" viewBox="0 0 20 20" fill="none" xmlns="http://www.w3.org/2000/svg">
<path d="M4.27391 3.48011H0.58823C0.263319 3.48011 0 3.21661 0 2.89188C0 2.56714 0.263319 2.30365 0.58823 2.30365H4.27391C4.59882 2.30365 4.86214 2.56714 4.86214 2.89188C4.86214 3.21661 4.59882 3.48011 4.27391 3.48011Z" fill="#0061DF"/>
<path d="M6.38018 5.58609C4.89445 5.58609 3.68579 4.37743 3.68579 2.89183C3.68579 1.40592 4.89445 0.197266 6.38018 0.197266C7.86591 0.197266 9.07457 1.40592 9.07457 2.89183C9.07457 4.37748 7.86591 5.58609 6.38018 5.58609ZM6.38018 1.37377C5.54318 1.37377 4.86225 2.05483 4.86225 2.89183C4.86225 3.72884 5.54318 4.40959 6.38018 4.40959C7.21719 4.40959 7.89811 3.72884 7.89811 2.89183C7.89811 2.05483 7.21719 1.37377 6.38018 1.37377Z" fill="#0061DF"/>
<path d="M19.4119 3.48011H10.6202C10.2953 3.48011 10.032 3.21661 10.032 2.89188C10.032 2.56714 10.2953 2.30365 10.6202 2.30365H19.4119C19.7368 2.30365 20.0001 2.56714 20.0001 2.89188C20.0001 3.21661 19.7368 3.48011 19.4119 3.48011Z" fill="#0061DF"/>
<path d="M14.2781 12.6943C12.7924 12.6943 11.5837 11.4856 11.5837 10C11.5837 8.51441 12.7924 7.30576 14.2781 7.30576C15.7639 7.30576 16.9725 8.51441 16.9725 10C16.9725 11.4856 15.7639 12.6943 14.2781 12.6943ZM14.2781 8.48226C13.4411 8.48226 12.7602 9.16301 12.7602 10C12.7602 10.837 13.4411 11.5178 14.2781 11.5178C15.1151 11.5178 15.7961 10.837 15.7961 10C15.7961 9.16301 15.1151 8.48226 14.2781 8.48226Z" fill="#0061DF"/>
<path d="M10.0382 10.5882H0.58823C0.263319 10.5882 0 10.3247 0 10C0 9.67527 0.263319 9.41177 0.58823 9.41177H10.0382C10.3631 9.41177 10.6264 9.67527 10.6264 10C10.6264 10.3247 10.3631 10.5882 10.0382 10.5882Z" fill="#0061DF"/>
<path d="M19.4117 10.5882H16.3841C16.0592 10.5882 15.7959 10.3247 15.7959 10C15.7959 9.67527 16.0592 9.41177 16.3841 9.41177H19.4117C19.7366 9.41177 19.9999 9.67527 19.9999 10C19.9999 10.3247 19.7366 10.5882 19.4117 10.5882Z" fill="#0061DF"/>
<path d="M5.72198 19.8027C4.23625 19.8027 3.02759 18.594 3.02759 17.1081C3.02759 15.6225 4.23625 14.4139 5.72198 14.4139C7.20771 14.4139 8.41637 15.6225 8.41637 17.1081C8.41637 18.594 7.20771 19.8027 5.72198 19.8027ZM5.72198 15.5904C4.88497 15.5904 4.20405 16.2711 4.20405 17.1081C4.20405 17.9451 4.88497 18.6262 5.72198 18.6262C6.55899 18.6262 7.23991 17.9451 7.23991 17.1081C7.23991 16.2711 6.55899 15.5904 5.72198 15.5904Z" fill="#0061DF"/>
<path d="M19.4117 17.6964H9.96177C9.63685 17.6964 9.37354 17.4329 9.37354 17.1082C9.37354 16.7835 9.63685 16.52 9.96177 16.52H19.4117C19.7366 16.52 19.9999 16.7835 19.9999 17.1082C19.9999 17.4329 19.7366 17.6964 19.4117 17.6964Z" fill="#0061DF"/>
<path d="M3.61581 17.6964H0.58823C0.263319 17.6964 0 17.4329 0 17.1081C0 16.7834 0.263319 16.5199 0.58823 16.5199H3.61581C3.94072 16.5199 4.20404 16.7834 4.20404 17.1081C4.20404 17.4329 3.94072 17.6964 3.61581 17.6964Z" fill="#0061DF"/>
</svg>
