<svg width="73" height="20" viewBox="0 0 73 20" fill="none" xmlns="http://www.w3.org/2000/svg">
<path d="M32.298 15.084C31.57 15.084 30.87 14.9673 30.198 14.734C29.5353 14.5007 29.022 14.1927 28.658 13.81L29.064 13.012C29.4187 13.3667 29.89 13.656 30.478 13.88C31.066 14.0947 31.6727 14.202 32.298 14.202C33.1753 14.202 33.8333 14.0433 34.272 13.726C34.7107 13.3993 34.93 12.9793 34.93 12.466C34.93 12.074 34.8087 11.7613 34.566 11.528C34.3327 11.2947 34.0433 11.1173 33.698 10.996C33.3527 10.8653 32.872 10.7253 32.256 10.576C31.5187 10.3893 30.9307 10.212 30.492 10.044C30.0533 9.86667 29.6753 9.60067 29.358 9.246C29.05 8.89133 28.896 8.41067 28.896 7.804C28.896 7.30933 29.0267 6.86133 29.288 6.46C29.5493 6.04933 29.9507 5.72267 30.492 5.48C31.0333 5.23733 31.7053 5.116 32.508 5.116C33.068 5.116 33.614 5.19533 34.146 5.354C34.6873 5.50333 35.154 5.71333 35.546 5.984L35.196 6.81C34.7853 6.53933 34.3467 6.33867 33.88 6.208C33.4133 6.068 32.956 5.998 32.508 5.998C31.6493 5.998 31.0007 6.166 30.562 6.502C30.1327 6.82867 29.918 7.25333 29.918 7.776C29.918 8.168 30.0347 8.48533 30.268 8.728C30.5107 8.96133 30.8093 9.14333 31.164 9.274C31.528 9.39533 32.0133 9.53067 32.62 9.68C33.3387 9.85733 33.9173 10.0347 34.356 10.212C34.804 10.38 35.182 10.6413 35.49 10.996C35.798 11.3413 35.952 11.8127 35.952 12.41C35.952 12.9047 35.8167 13.3573 35.546 13.768C35.2847 14.1693 34.8787 14.4913 34.328 14.734C33.7773 14.9673 33.1007 15.084 32.298 15.084ZM41.8773 14.552C41.6906 14.72 41.4573 14.8507 41.1773 14.944C40.9066 15.028 40.6219 15.07 40.3233 15.07C39.6326 15.07 39.1006 14.8833 38.7273 14.51C38.3539 14.1367 38.1673 13.6093 38.1673 12.928V8.476H36.8513V7.636H38.1673V6.026H39.1613V7.636H41.4013V8.476H39.1613V12.872C39.1613 13.3107 39.2686 13.6467 39.4833 13.88C39.7073 14.104 40.0246 14.216 40.4353 14.216C40.6406 14.216 40.8366 14.1833 41.0233 14.118C41.2193 14.0527 41.3873 13.9593 41.5273 13.838L41.8773 14.552ZM46.2628 7.58C47.2241 7.58 47.9614 7.82267 48.4748 8.308C48.9881 8.784 49.2448 9.49333 49.2448 10.436V15H48.2928V13.852C48.0688 14.2347 47.7374 14.5333 47.2988 14.748C46.8694 14.9627 46.3561 15.07 45.7588 15.07C44.9374 15.07 44.2841 14.874 43.7988 14.482C43.3134 14.09 43.0708 13.572 43.0708 12.928C43.0708 12.3027 43.2948 11.7987 43.7428 11.416C44.2001 11.0333 44.9234 10.842 45.9128 10.842H48.2508V10.394C48.2508 9.75933 48.0734 9.27867 47.7188 8.952C47.3641 8.616 46.8461 8.448 46.1648 8.448C45.6981 8.448 45.2501 8.52733 44.8208 8.686C44.3914 8.83533 44.0228 9.04533 43.7148 9.316L43.2668 8.574C43.6401 8.25667 44.0881 8.014 44.6108 7.846C45.1334 7.66867 45.6841 7.58 46.2628 7.58ZM45.9128 14.286C46.4728 14.286 46.9534 14.16 47.3548 13.908C47.7561 13.6467 48.0548 13.2733 48.2508 12.788V11.584H45.9408C44.6808 11.584 44.0508 12.0227 44.0508 12.9C44.0508 13.3293 44.2141 13.67 44.5408 13.922C44.8674 14.1647 45.3248 14.286 45.9128 14.286ZM55.8226 14.552C55.6359 14.72 55.4026 14.8507 55.1226 14.944C54.8519 15.028 54.5673 15.07 54.2686 15.07C53.5779 15.07 53.0459 14.8833 52.6726 14.51C52.2993 14.1367 52.1126 13.6093 52.1126 12.928V8.476H50.7966V7.636H52.1126V6.026H53.1066V7.636H55.3466V8.476H53.1066V12.872C53.1066 13.3107 53.2139 13.6467 53.4286 13.88C53.6526 14.104 53.9699 14.216 54.3806 14.216C54.5859 14.216 54.7819 14.1833 54.9686 14.118C55.1646 14.0527 55.3326 13.9593 55.4726 13.838L55.8226 14.552ZM64.2681 7.636V15H63.3161V13.656C63.0548 14.104 62.6954 14.454 62.2381 14.706C61.7808 14.9487 61.2581 15.07 60.6701 15.07C59.7088 15.07 58.9481 14.804 58.3881 14.272C57.8374 13.7307 57.5621 12.942 57.5621 11.906V7.636H58.5561V11.808C58.5561 12.5827 58.7474 13.1707 59.1301 13.572C59.5128 13.9733 60.0588 14.174 60.7681 14.174C61.5428 14.174 62.1541 13.9407 62.6021 13.474C63.0501 12.998 63.2741 12.34 63.2741 11.5V7.636H64.2681ZM69.026 15.07C68.4287 15.07 67.8547 14.986 67.304 14.818C66.7627 14.6407 66.338 14.4213 66.03 14.16L66.478 13.376C66.786 13.6187 67.1733 13.8193 67.64 13.978C68.1067 14.1273 68.592 14.202 69.096 14.202C69.768 14.202 70.2627 14.0993 70.58 13.894C70.9067 13.6793 71.07 13.3807 71.07 12.998C71.07 12.7273 70.9813 12.5173 70.804 12.368C70.6267 12.2093 70.4027 12.0927 70.132 12.018C69.8613 11.934 69.502 11.8547 69.054 11.78C68.4567 11.668 67.976 11.556 67.612 11.444C67.248 11.3227 66.9353 11.122 66.674 10.842C66.422 10.562 66.296 10.1747 66.296 9.68C66.296 9.064 66.5527 8.56 67.066 8.168C67.5793 7.776 68.2933 7.58 69.208 7.58C69.684 7.58 70.16 7.64533 70.636 7.776C71.112 7.89733 71.504 8.06067 71.812 8.266L71.378 9.064C70.7713 8.644 70.048 8.434 69.208 8.434C68.5733 8.434 68.0927 8.546 67.766 8.77C67.4487 8.994 67.29 9.288 67.29 9.652C67.29 9.932 67.3787 10.156 67.556 10.324C67.7427 10.492 67.9713 10.618 68.242 10.702C68.5127 10.7767 68.886 10.856 69.362 10.94C69.95 11.052 70.4213 11.164 70.776 11.276C71.1307 11.388 71.434 11.5793 71.686 11.85C71.938 12.1207 72.064 12.494 72.064 12.97C72.064 13.614 71.7933 14.1273 71.252 14.51C70.72 14.8833 69.978 15.07 69.026 15.07Z" fill="#0D263B"/>
<path d="M16.2188 2.54889H17.3907V3.72076H16.2188V2.54889Z" fill="#0061DF"/>
<path d="M18.5408 15.4396C17.8592 14.9857 17.0415 14.8244 16.2386 14.9855L13.0805 15.6486C13.2659 14.7476 12.7955 13.8363 11.9321 13.498L8.55254 12.1603C7.20613 11.6275 5.71113 11.595 4.34094 12.0696L0 13.5909V19.3935L4.96934 17.7262L11.017 20L20 18.148L19.8477 17.3885C19.6866 16.5856 19.2225 15.8935 18.5408 15.4396ZM11.1124 18.7819L4.99168 16.4805L1.17379 17.7615V14.4234L4.72711 13.1781C5.83004 12.7961 7.0352 12.8223 8.12055 13.2518L11.502 14.5902C11.8529 14.7276 12.0321 15.1435 11.9017 15.5171C11.8336 15.7124 11.6956 15.8661 11.5134 15.9499C11.3438 16.0278 11.1562 16.0339 10.9855 15.9669L6.89266 14.3631L6.46441 15.456L10.5573 17.0599C10.8827 17.1874 11.2288 17.2193 11.5643 17.1566L11.5663 17.166L16.4721 16.136C16.9666 16.0375 17.4704 16.1371 17.8904 16.4167C18.1999 16.6228 18.4367 16.9084 18.5798 17.2424L11.1124 18.7819Z" fill="#0061DF"/>
<path d="M9.97236 10.9817C10.1656 11.038 10.3628 11.0655 10.5584 11.0654C11.106 11.0654 11.6409 10.8504 12.0393 10.4519L15.044 7.44719L16.0781 8.48129L19.1678 5.39164C19.7042 4.85516 19.9997 4.14184 19.9997 3.38309C19.9997 2.62434 19.7042 1.91102 19.1677 1.37453L18.6251 0.831953C18.0887 0.295469 17.3753 0 16.6166 0C15.8578 0 15.1445 0.295469 14.608 0.831953L11.5184 3.9216L12.5525 4.95566L7.3042 10.2039L9.97236 10.9817ZM13.1757 3.9216L15.4367 1.66059C15.7518 1.34543 16.1708 1.17188 16.6166 1.17188C17.0623 1.17188 17.4814 1.34543 17.7965 1.66059L18.3391 2.20316C18.6543 2.51832 18.8278 2.93738 18.8278 3.38309C18.8278 3.82879 18.6543 4.24785 18.3391 4.56301L16.0781 6.82398L13.1757 3.9216ZM14.2154 6.61859L11.2106 9.62328C10.9725 9.86145 10.6237 9.9509 10.3003 9.8566L9.5326 9.63285L13.3811 5.78434L14.2154 6.61859Z" fill="#0061DF"/>
</svg>
