<svg width="337" height="47" viewBox="0 0 337 47" fill="none" xmlns="http://www.w3.org/2000/svg">
<path d="M10.352 38.056H8.112V41H6.96V38.056H0.64V37.224L6.576 29.8H7.856L2.128 37.032H6.992V34.44H8.112V37.032H10.352V38.056ZM20.6856 32.52C21.475 32.52 22.1896 32.7013 22.8296 33.064C23.4696 33.416 23.971 33.9173 24.3336 34.568C24.6963 35.2187 24.8776 35.96 24.8776 36.792C24.8776 37.624 24.6963 38.3653 24.3336 39.016C23.971 39.6667 23.4696 40.1733 22.8296 40.536C22.1896 40.8987 21.475 41.08 20.6856 41.08C19.9816 41.08 19.347 40.9307 18.7816 40.632C18.227 40.3333 17.779 39.9013 17.4376 39.336V41H16.3496V29.128H17.4856V34.184C17.8376 33.64 18.2856 33.2293 18.8296 32.952C19.3843 32.664 20.003 32.52 20.6856 32.52ZM20.6056 40.072C21.1923 40.072 21.7256 39.9387 22.2056 39.672C22.6856 39.3947 23.059 39.0053 23.3256 38.504C23.603 38.0027 23.7416 37.432 23.7416 36.792C23.7416 36.152 23.603 35.5813 23.3256 35.08C23.059 34.5787 22.6856 34.1947 22.2056 33.928C21.7256 33.6507 21.1923 33.512 20.6056 33.512C20.0083 33.512 19.4696 33.6507 18.9896 33.928C18.5203 34.1947 18.147 34.5787 17.8696 35.08C17.603 35.5813 17.4696 36.152 17.4696 36.792C17.4696 37.432 17.603 38.0027 17.8696 38.504C18.147 39.0053 18.5203 39.3947 18.9896 39.672C19.4696 39.9387 20.0083 40.072 20.6056 40.072ZM34.5214 37.144H27.4814C27.5454 38.0187 27.8814 38.728 28.4894 39.272C29.0974 39.8053 29.8654 40.072 30.7934 40.072C31.316 40.072 31.796 39.9813 32.2334 39.8C32.6707 39.608 33.0494 39.3307 33.3694 38.968L34.0094 39.704C33.636 40.152 33.1667 40.4933 32.6014 40.728C32.0467 40.9627 31.4334 41.08 30.7614 41.08C29.8974 41.08 29.1294 40.8987 28.4574 40.536C27.796 40.1627 27.2787 39.6507 26.9054 39C26.532 38.3493 26.3454 37.6133 26.3454 36.792C26.3454 35.9707 26.5214 35.2347 26.8734 34.584C27.236 33.9333 27.7267 33.4267 28.3454 33.064C28.9747 32.7013 29.6787 32.52 30.4574 32.52C31.236 32.52 31.9347 32.7013 32.5534 33.064C33.172 33.4267 33.6574 33.9333 34.0094 34.584C34.3614 35.224 34.5374 35.96 34.5374 36.792L34.5214 37.144ZM30.4574 33.496C29.6467 33.496 28.964 33.7573 28.4094 34.28C27.8654 34.792 27.556 35.464 27.4814 36.296H33.4494C33.3747 35.464 33.06 34.792 32.5054 34.28C31.9614 33.7573 31.2787 33.496 30.4574 33.496ZM44.5296 29.128V41H43.4416V39.336C43.1003 39.9013 42.647 40.3333 42.0816 40.632C41.527 40.9307 40.8976 41.08 40.1936 41.08C39.4043 41.08 38.6896 40.8987 38.0496 40.536C37.4096 40.1733 36.9083 39.6667 36.5456 39.016C36.183 38.3653 36.0016 37.624 36.0016 36.792C36.0016 35.96 36.183 35.2187 36.5456 34.568C36.9083 33.9173 37.4096 33.416 38.0496 33.064C38.6896 32.7013 39.4043 32.52 40.1936 32.52C40.8763 32.52 41.4896 32.664 42.0336 32.952C42.5883 33.2293 43.0416 33.64 43.3936 34.184V29.128H44.5296ZM40.2896 40.072C40.8763 40.072 41.4043 39.9387 41.8736 39.672C42.3536 39.3947 42.727 39.0053 42.9936 38.504C43.271 38.0027 43.4096 37.432 43.4096 36.792C43.4096 36.152 43.271 35.5813 42.9936 35.08C42.727 34.5787 42.3536 34.1947 41.8736 33.928C41.4043 33.6507 40.8763 33.512 40.2896 33.512C39.6923 33.512 39.1536 33.6507 38.6736 33.928C38.2043 34.1947 37.831 34.5787 37.5536 35.08C37.287 35.5813 37.1536 36.152 37.1536 36.792C37.1536 37.432 37.287 38.0027 37.5536 38.504C37.831 39.0053 38.2043 39.3947 38.6736 39.672C39.1536 39.9387 39.6923 40.072 40.2896 40.072ZM49.9494 41.08C49.2667 41.08 48.6107 40.984 47.9814 40.792C47.3627 40.5893 46.8774 40.3387 46.5254 40.04L47.0374 39.144C47.3894 39.4213 47.832 39.6507 48.3654 39.832C48.8987 40.0027 49.4534 40.088 50.0294 40.088C50.7974 40.088 51.3627 39.9707 51.7254 39.736C52.0987 39.4907 52.2854 39.1493 52.2854 38.712C52.2854 38.4027 52.184 38.1627 51.9814 37.992C51.7787 37.8107 51.5227 37.6773 51.2134 37.592C50.904 37.496 50.4934 37.4053 49.9814 37.32C49.2987 37.192 48.7494 37.064 48.3334 36.936C47.9174 36.7973 47.56 36.568 47.2614 36.248C46.9734 35.928 46.8294 35.4853 46.8294 34.92C46.8294 34.216 47.1227 33.64 47.7094 33.192C48.296 32.744 49.112 32.52 50.1574 32.52C50.7014 32.52 51.2454 32.5947 51.7894 32.744C52.3334 32.8827 52.7814 33.0693 53.1334 33.304L52.6374 34.216C51.944 33.736 51.1174 33.496 50.1574 33.496C49.432 33.496 48.8827 33.624 48.5094 33.88C48.1467 34.136 47.9654 34.472 47.9654 34.888C47.9654 35.208 48.0667 35.464 48.2694 35.656C48.4827 35.848 48.744 35.992 49.0534 36.088C49.3627 36.1733 49.7894 36.264 50.3334 36.36C51.0054 36.488 51.544 36.616 51.9494 36.744C52.3547 36.872 52.7014 37.0907 52.9894 37.4C53.2774 37.7093 53.4214 38.136 53.4214 38.68C53.4214 39.416 53.112 40.0027 52.4934 40.44C51.8854 40.8667 51.0374 41.08 49.9494 41.08Z" fill="white"/>
<path d="M35.2372 8.6246V4.39346C35.2372 3.46064 34.4782 2.70172 33.5454 2.70172H21.4546C20.5218 2.70172 19.7628 3.46064 19.7628 4.39346V8.6246C18.7477 8.90563 18 9.83707 18 10.9404V14.1553C18 14.4668 18.2526 14.7194 18.5641 14.7194H19.7628V15.7341C19.7628 16.0456 20.0154 16.2982 20.3269 16.2982C20.6384 16.2982 20.891 16.0456 20.891 15.7341V14.7194H34.109V15.7341C34.109 16.0456 34.3616 16.2982 34.6731 16.2982C34.9846 16.2982 35.2372 16.0456 35.2372 15.7341V14.7194H36.4359C36.7474 14.7194 37 14.4668 37 14.1553V10.9404C37 9.83707 36.2523 8.90563 35.2372 8.6246ZM20.891 4.39346C20.891 4.08271 21.1438 3.82985 21.4546 3.82985H33.5455C33.8562 3.82985 34.1091 4.08271 34.1091 4.39346V8.53732H32.7874V7.40507C32.7874 6.42053 31.9864 5.61956 31.0019 5.61956H28.7215C28.2493 5.61956 27.8197 5.8041 27.5 6.1045C27.1804 5.80414 26.7508 5.61956 26.2786 5.61956H23.9982C23.0136 5.61956 22.2127 6.42056 22.2127 7.40507V8.53732H20.891V4.39346ZM31.6593 7.40507V8.53732H28.0641V7.40507C28.0641 7.04255 28.359 6.74768 28.7215 6.74768H31.0019C31.3644 6.74768 31.6593 7.04259 31.6593 7.40507ZM26.9359 7.40507V8.53732H23.3407V7.40507C23.3407 7.04255 23.6356 6.74768 23.9981 6.74768H26.2785C26.641 6.74768 26.9359 7.04259 26.9359 7.40507ZM35.8719 13.5912H19.1281V10.9404C19.1281 10.2374 19.7001 9.66544 20.4031 9.66544H34.5969C35.2999 9.66544 35.8719 10.2374 35.8719 10.9404V13.5912Z" fill="white"/>
<path d="M81.776 34.392C83.3973 34.392 84.576 34.6853 85.312 35.272C86.0587 35.848 86.432 36.6587 86.432 37.704C86.432 38.3547 86.2773 38.936 85.968 39.448C85.6693 39.96 85.216 40.3653 84.608 40.664C84 40.952 83.2533 41.096 82.368 41.096C81.568 41.096 80.8053 40.968 80.08 40.712C79.3653 40.4453 78.7893 40.0933 78.352 39.656L78.912 38.744C79.2853 39.128 79.776 39.4427 80.384 39.688C80.992 39.9227 81.648 40.04 82.352 40.04C83.28 40.04 83.9947 39.832 84.496 39.416C85.008 39 85.264 38.4453 85.264 37.752C85.264 36.984 84.976 36.4027 84.4 36.008C83.8347 35.6133 82.8747 35.416 81.52 35.416H79.136L79.712 29.8H85.84V30.824H80.72L80.336 34.392H81.776ZM100.13 35.224C100.866 35.384 101.431 35.704 101.826 36.184C102.231 36.6533 102.434 37.2613 102.434 38.008C102.434 38.968 102.077 39.7093 101.362 40.232C100.658 40.744 99.6127 41 98.226 41H93.074V29.8H97.906C99.154 29.8 100.119 30.0507 100.802 30.552C101.495 31.0533 101.842 31.7627 101.842 32.68C101.842 33.2987 101.687 33.8267 101.378 34.264C101.079 34.6907 100.663 35.0107 100.13 35.224ZM94.258 30.776V34.84H97.826C98.7327 34.84 99.4313 34.6693 99.922 34.328C100.413 33.976 100.658 33.4693 100.658 32.808C100.658 32.1467 100.413 31.6453 99.922 31.304C99.4313 30.952 98.7327 30.776 97.826 30.776H94.258ZM98.21 40.024C99.2127 40.024 99.97 39.8533 100.482 39.512C100.994 39.1707 101.25 38.6373 101.25 37.912C101.25 36.5147 100.237 35.816 98.21 35.816H94.258V40.024H98.21ZM107.841 32.52C108.939 32.52 109.782 32.7973 110.369 33.352C110.955 33.896 111.249 34.7067 111.249 35.784V41H110.161V39.688C109.905 40.1253 109.526 40.4667 109.025 40.712C108.534 40.9573 107.947 41.08 107.265 41.08C106.326 41.08 105.579 40.856 105.025 40.408C104.47 39.96 104.193 39.368 104.193 38.632C104.193 37.9173 104.449 37.3413 104.961 36.904C105.483 36.4667 106.31 36.248 107.441 36.248H110.113V35.736C110.113 35.0107 109.91 34.4613 109.505 34.088C109.099 33.704 108.507 33.512 107.729 33.512C107.195 33.512 106.683 33.6027 106.193 33.784C105.702 33.9547 105.281 34.1947 104.929 34.504L104.417 33.656C104.843 33.2933 105.355 33.016 105.953 32.824C106.55 32.6213 107.179 32.52 107.841 32.52ZM107.441 40.184C108.081 40.184 108.63 40.04 109.089 39.752C109.547 39.4533 109.889 39.0267 110.113 38.472V37.096H107.473C106.033 37.096 105.312 37.5973 105.312 38.6C105.312 39.0907 105.499 39.48 105.873 39.768C106.246 40.0453 106.769 40.184 107.441 40.184ZM118.766 40.488C118.553 40.68 118.286 40.8293 117.966 40.936C117.657 41.032 117.331 41.08 116.99 41.08C116.201 41.08 115.593 40.8667 115.166 40.44C114.739 40.0133 114.526 39.4107 114.526 38.632V33.544H113.022V32.584H114.526V30.744H115.662V32.584H118.222V33.544H115.662V38.568C115.662 39.0693 115.785 39.4533 116.03 39.72C116.286 39.976 116.649 40.104 117.118 40.104C117.353 40.104 117.577 40.0667 117.79 39.992C118.014 39.9173 118.206 39.8107 118.366 39.672L118.766 40.488ZM125.122 32.52C126.178 32.52 127.015 32.8293 127.634 33.448C128.263 34.056 128.578 34.9467 128.578 36.12V41H127.442V36.232C127.442 35.3573 127.223 34.6907 126.786 34.232C126.349 33.7733 125.725 33.544 124.914 33.544C124.007 33.544 123.287 33.816 122.754 34.36C122.231 34.8933 121.97 35.6347 121.97 36.584V41H120.834V29.128H121.97V34.056C122.279 33.5653 122.706 33.1867 123.25 32.92C123.794 32.6533 124.418 32.52 125.122 32.52ZM133.918 41.08C133.235 41.08 132.579 40.984 131.95 40.792C131.331 40.5893 130.846 40.3387 130.494 40.04L131.006 39.144C131.358 39.4213 131.801 39.6507 132.334 39.832C132.867 40.0027 133.422 40.088 133.998 40.088C134.766 40.088 135.331 39.9707 135.694 39.736C136.067 39.4907 136.254 39.1493 136.254 38.712C136.254 38.4027 136.153 38.1627 135.95 37.992C135.747 37.8107 135.491 37.6773 135.182 37.592C134.873 37.496 134.462 37.4053 133.95 37.32C133.267 37.192 132.718 37.064 132.302 36.936C131.886 36.7973 131.529 36.568 131.23 36.248C130.942 35.928 130.798 35.4853 130.798 34.92C130.798 34.216 131.091 33.64 131.678 33.192C132.265 32.744 133.081 32.52 134.126 32.52C134.67 32.52 135.214 32.5947 135.758 32.744C136.302 32.8827 136.75 33.0693 137.102 33.304L136.606 34.216C135.913 33.736 135.086 33.496 134.126 33.496C133.401 33.496 132.851 33.624 132.478 33.88C132.115 34.136 131.934 34.472 131.934 34.888C131.934 35.208 132.035 35.464 132.238 35.656C132.451 35.848 132.713 35.992 133.022 36.088C133.331 36.1733 133.758 36.264 134.302 36.36C134.974 36.488 135.513 36.616 135.918 36.744C136.323 36.872 136.67 37.0907 136.958 37.4C137.246 37.7093 137.39 38.136 137.39 38.68C137.39 39.416 137.081 40.0027 136.462 40.44C135.854 40.8667 135.006 41.08 133.918 41.08Z" fill="white"/>
<path d="M117.762 11.0558C117.762 10.7426 117.508 10.4886 117.195 10.4886H116.06V2.75501C116.06 1.23589 114.824 0 113.305 0C111.786 0 110.55 1.23589 110.55 2.75501V3.78902C110.55 4.10226 110.804 4.35624 111.117 4.35624C111.43 4.35624 111.684 4.10226 111.684 3.78902V2.75501C111.684 1.86141 112.411 1.13444 113.305 1.13444C114.198 1.13444 114.925 1.86141 114.925 2.75501V10.4886H99.8055C99.4923 10.4886 99.2383 10.7426 99.2383 11.0558C99.2383 13.6158 100.857 15.8044 103.125 16.6522C102.689 17.1108 102.419 17.7397 102.419 18.4328C102.419 18.746 102.673 19 102.986 19C103.3 19 103.554 18.746 103.554 18.4328C103.554 17.6583 104.145 17.0282 104.871 17.0282C104.898 17.0282 112.103 17.0282 112.129 17.0282C112.856 17.0282 113.447 17.6583 113.447 18.4328C113.447 18.746 113.701 19 114.014 19C114.327 19 114.581 18.746 114.581 18.4328C114.581 17.7397 114.311 17.1108 113.875 16.6522C116.143 15.8044 117.762 13.6158 117.762 11.0558ZM111.79 15.8938H105.211C102.735 15.8938 100.687 14.0245 100.406 11.6231H116.595C116.313 14.0245 114.266 15.8938 111.79 15.8938Z" fill="white"/>
<path d="M111.117 5.34045C110.803 5.34045 110.549 5.59443 110.549 5.90767V6.39926C110.549 6.7125 110.803 6.96648 111.117 6.96648C111.43 6.96648 111.684 6.7125 111.684 6.39926V5.90767C111.684 5.59439 111.43 5.34045 111.117 5.34045Z" fill="white"/>
<path d="M111.117 8.06311C110.803 8.06311 110.549 8.31709 110.549 8.63033V9.12192C110.549 9.43516 110.803 9.68913 111.117 9.68913C111.43 9.68913 111.684 9.43516 111.684 9.12192V8.63033C111.684 8.31705 111.43 8.06311 111.117 8.06311Z" fill="white"/>
<path d="M165.936 29.8V41H164.784V30.824H162.144V29.8H165.936ZM181.681 35.4H182.817V39.672C182.294 40.1307 181.675 40.4827 180.961 40.728C180.246 40.9733 179.494 41.096 178.705 41.096C177.585 41.096 176.577 40.8507 175.681 40.36C174.785 39.8693 174.081 39.192 173.569 38.328C173.057 37.4533 172.801 36.4773 172.801 35.4C172.801 34.3227 173.057 33.352 173.569 32.488C174.081 31.6133 174.785 30.9307 175.681 30.44C176.577 29.9493 177.59 29.704 178.721 29.704C179.574 29.704 180.358 29.8427 181.073 30.12C181.787 30.3867 182.39 30.7867 182.881 31.32L182.145 32.072C181.259 31.1973 180.134 30.76 178.769 30.76C177.862 30.76 177.041 30.9627 176.305 31.368C175.579 31.7627 175.009 32.3173 174.593 33.032C174.177 33.736 173.969 34.5253 173.969 35.4C173.969 36.2747 174.177 37.064 174.593 37.768C175.009 38.472 175.579 39.0267 176.305 39.432C177.03 39.8373 177.846 40.04 178.753 40.04C179.905 40.04 180.881 39.752 181.681 39.176V35.4ZM188.872 32.52C189.97 32.52 190.813 32.7973 191.4 33.352C191.986 33.896 192.28 34.7067 192.28 35.784V41H191.192V39.688C190.936 40.1253 190.557 40.4667 190.056 40.712C189.565 40.9573 188.978 41.08 188.296 41.08C187.357 41.08 186.61 40.856 186.056 40.408C185.501 39.96 185.224 39.368 185.224 38.632C185.224 37.9173 185.48 37.3413 185.992 36.904C186.514 36.4667 187.341 36.248 188.472 36.248H191.144V35.736C191.144 35.0107 190.941 34.4613 190.536 34.088C190.13 33.704 189.538 33.512 188.76 33.512C188.226 33.512 187.714 33.6027 187.224 33.784C186.733 33.9547 186.312 34.1947 185.96 34.504L185.448 33.656C185.874 33.2933 186.386 33.016 186.984 32.824C187.581 32.6213 188.21 32.52 188.872 32.52ZM188.472 40.184C189.112 40.184 189.661 40.04 190.12 39.752C190.578 39.4533 190.92 39.0267 191.144 38.472V37.096H188.504C187.064 37.096 186.344 37.5973 186.344 38.6C186.344 39.0907 186.53 39.48 186.904 39.768C187.277 40.0453 187.8 40.184 188.472 40.184ZM196.453 34.232C196.72 33.6667 197.115 33.24 197.637 32.952C198.171 32.664 198.827 32.52 199.605 32.52V33.624L199.333 33.608C198.448 33.608 197.755 33.88 197.253 34.424C196.752 34.968 196.501 35.7307 196.501 36.712V41H195.365V32.584H196.453V34.232ZM204.591 32.52C205.689 32.52 206.532 32.7973 207.119 33.352C207.705 33.896 207.999 34.7067 207.999 35.784V41H206.911V39.688C206.655 40.1253 206.276 40.4667 205.775 40.712C205.284 40.9573 204.697 41.08 204.015 41.08C203.076 41.08 202.329 40.856 201.775 40.408C201.22 39.96 200.943 39.368 200.943 38.632C200.943 37.9173 201.199 37.3413 201.711 36.904C202.233 36.4667 203.06 36.248 204.191 36.248H206.863V35.736C206.863 35.0107 206.66 34.4613 206.255 34.088C205.849 33.704 205.257 33.512 204.479 33.512C203.945 33.512 203.433 33.6027 202.943 33.784C202.452 33.9547 202.031 34.1947 201.679 34.504L201.167 33.656C201.593 33.2933 202.105 33.016 202.703 32.824C203.3 32.6213 203.929 32.52 204.591 32.52ZM204.191 40.184C204.831 40.184 205.38 40.04 205.839 39.752C206.297 39.4533 206.639 39.0267 206.863 38.472V37.096H204.223C202.783 37.096 202.062 37.5973 202.062 38.6C202.062 39.0907 202.249 39.48 202.623 39.768C202.996 40.0453 203.519 40.184 204.191 40.184ZM218.907 32.584V39.976C218.907 41.4053 218.555 42.4613 217.851 43.144C217.158 43.8373 216.107 44.184 214.699 44.184C213.921 44.184 213.179 44.0667 212.475 43.832C211.782 43.608 211.217 43.2933 210.779 42.888L211.355 42.024C211.761 42.3867 212.251 42.6693 212.827 42.872C213.414 43.0747 214.027 43.176 214.667 43.176C215.734 43.176 216.518 42.9253 217.019 42.424C217.521 41.9333 217.771 41.1653 217.771 40.12V39.048C217.419 39.5813 216.955 39.9867 216.379 40.264C215.814 40.5413 215.185 40.68 214.491 40.68C213.702 40.68 212.982 40.5093 212.331 40.168C211.691 39.816 211.185 39.3307 210.811 38.712C210.449 38.0827 210.267 37.3733 210.267 36.584C210.267 35.7947 210.449 35.0907 210.811 34.472C211.185 33.8533 211.691 33.3733 212.331 33.032C212.971 32.6907 213.691 32.52 214.491 32.52C215.206 32.52 215.851 32.664 216.427 32.952C217.003 33.24 217.467 33.656 217.819 34.2V32.584H218.907ZM214.603 39.672C215.211 39.672 215.761 39.544 216.251 39.288C216.742 39.0213 217.121 38.6533 217.387 38.184C217.665 37.7147 217.803 37.1813 217.803 36.584C217.803 35.9867 217.665 35.4587 217.387 35C217.121 34.5307 216.742 34.168 216.251 33.912C215.771 33.6453 215.222 33.512 214.603 33.512C213.995 33.512 213.446 33.64 212.955 33.896C212.475 34.152 212.097 34.5147 211.819 34.984C211.553 35.4533 211.419 35.9867 211.419 36.584C211.419 37.1813 211.553 37.7147 211.819 38.184C212.097 38.6533 212.475 39.0213 212.955 39.288C213.446 39.544 213.995 39.672 214.603 39.672ZM229.412 37.144H222.372C222.436 38.0187 222.772 38.728 223.38 39.272C223.988 39.8053 224.756 40.072 225.684 40.072C226.207 40.072 226.687 39.9813 227.124 39.8C227.561 39.608 227.94 39.3307 228.26 38.968L228.9 39.704C228.527 40.152 228.057 40.4933 227.492 40.728C226.937 40.9627 226.324 41.08 225.652 41.08C224.788 41.08 224.02 40.8987 223.348 40.536C222.687 40.1627 222.169 39.6507 221.796 39C221.423 38.3493 221.236 37.6133 221.236 36.792C221.236 35.9707 221.412 35.2347 221.764 34.584C222.127 33.9333 222.617 33.4267 223.236 33.064C223.865 32.7013 224.569 32.52 225.348 32.52C226.127 32.52 226.825 32.7013 227.444 33.064C228.063 33.4267 228.548 33.9333 228.9 34.584C229.252 35.224 229.428 35.96 229.428 36.792L229.412 37.144ZM225.348 33.496C224.537 33.496 223.855 33.7573 223.3 34.28C222.756 34.792 222.447 35.464 222.372 36.296H228.34C228.265 35.464 227.951 34.792 227.396 34.28C226.852 33.7573 226.169 33.496 225.348 33.496Z" fill="white"/>
<path d="M205.273 7.6122L204.859 7.17374L203.406 3.25601C203.158 2.59425 202.525 2.15579 201.818 2.15173H191.437C190.731 2.15173 190.098 2.59425 189.85 3.25601L188.417 7.12502L187.82 7.67716C187.3 8.11968 187 8.76925 187 9.45131V15.1594C187.004 16.0932 187.763 16.8483 188.697 16.8483H189.769C190.703 16.8483 191.462 16.0932 191.466 15.1594V14.3312H201.534V15.1594C201.538 16.0932 202.297 16.8483 203.231 16.8483H204.303C205.237 16.8483 205.996 16.0932 206 15.1594V9.30109C205.996 8.6637 205.736 8.05472 205.273 7.6122ZM190.613 3.53208C190.743 3.18699 191.072 2.9637 191.437 2.9637H201.822C202.188 2.9637 202.517 3.19105 202.647 3.53208L203.913 6.94233H202.967C202.744 5.4199 201.327 4.3684 199.805 4.59575C198.591 4.77438 197.637 5.72844 197.458 6.94233H189.347L190.613 3.53208ZM202.139 6.94233H198.278C198.501 5.8746 199.549 5.19254 200.617 5.41584C201.38 5.57823 201.977 6.17502 202.139 6.94233ZM190.654 15.1594C190.65 15.6466 190.256 16.0363 189.769 16.0363H188.697C188.21 16.0363 187.816 15.6466 187.812 15.1594V14.0957C188.056 14.2541 188.376 14.3312 188.697 14.3312H190.654V15.1594ZM205.188 15.1594C205.184 15.6466 204.79 16.0363 204.303 16.0363H203.231C202.744 16.0363 202.35 15.6425 202.346 15.1594V14.3312H204.303C204.624 14.3312 204.944 14.2541 205.188 14.0957V15.1594ZM204.303 13.5193H188.697C188.214 13.5233 187.816 13.1376 187.812 12.6505V9.45131C187.812 9.00472 188.011 8.57844 188.352 8.29019C188.356 8.28613 188.364 8.27802 188.368 8.27396L188.92 7.7543H204.295L204.685 8.17246C204.689 8.18058 204.701 8.18464 204.705 8.19276C205.009 8.48101 205.184 8.88293 205.184 9.30109V12.6505H205.188C205.184 13.1336 204.786 13.5233 204.303 13.5193Z" fill="white"/>
<path d="M192.359 9.37817H189.314C189.091 9.37817 188.908 9.56087 188.908 9.78416V11.8953C188.908 12.1186 189.091 12.3013 189.314 12.3013H192.359C192.582 12.3013 192.765 12.1186 192.765 11.8953V9.78416C192.765 9.56087 192.582 9.37817 192.359 9.37817ZM191.953 11.4893H189.72V10.1901H191.953V11.4893Z" fill="white"/>
<path d="M203.686 9.37817H200.641C200.418 9.37817 200.235 9.56087 200.235 9.78416V11.8953C200.235 12.1186 200.418 12.3013 200.641 12.3013H203.686C203.909 12.3013 204.092 12.1186 204.092 11.8953V9.78416C204.092 9.56087 203.909 9.37817 203.686 9.37817ZM203.28 11.4893H201.047V10.1901H203.28V11.4893Z" fill="white"/>
<path d="M198.461 11.0833H194.539C194.316 11.0833 194.133 11.266 194.133 11.4893C194.133 11.7126 194.316 11.8953 194.539 11.8953H198.461C198.684 11.8953 198.867 11.7126 198.867 11.4893C198.867 11.266 198.684 11.0833 198.461 11.0833Z" fill="white"/>
<path d="M198.461 9.82477H194.539C194.316 9.82477 194.133 10.0075 194.133 10.2307C194.133 10.454 194.316 10.6367 194.539 10.6367H198.461C198.684 10.6367 198.867 10.454 198.867 10.2307C198.867 10.0075 198.684 9.82477 198.461 9.82477Z" fill="white"/>
<path d="M258.936 29.8V41H257.784V30.824H255.144V29.8H258.936ZM269.261 39.976V41H261.405V40.184L266.061 35.624C266.648 35.048 267.043 34.552 267.245 34.136C267.459 33.7093 267.565 33.2827 267.565 32.856C267.565 32.1947 267.336 31.6827 266.877 31.32C266.429 30.9467 265.784 30.76 264.941 30.76C263.629 30.76 262.611 31.176 261.885 32.008L261.069 31.304C261.507 30.792 262.061 30.3973 262.733 30.12C263.416 29.8427 264.184 29.704 265.037 29.704C266.179 29.704 267.08 29.976 267.741 30.52C268.413 31.0533 268.749 31.7893 268.749 32.728C268.749 33.304 268.621 33.8587 268.365 34.392C268.109 34.9253 267.624 35.5387 266.909 36.232L263.101 39.976H269.261ZM275.109 41.096C274.245 41.096 273.471 40.8667 272.789 40.408C272.117 39.9493 271.589 39.2933 271.205 38.44C270.831 37.576 270.645 36.5627 270.645 35.4C270.645 34.2373 270.831 33.2293 271.205 32.376C271.589 31.512 272.117 30.8507 272.789 30.392C273.471 29.9333 274.245 29.704 275.109 29.704C275.973 29.704 276.741 29.9333 277.413 30.392C278.095 30.8507 278.629 31.512 279.013 32.376C279.397 33.2293 279.589 34.2373 279.589 35.4C279.589 36.5627 279.397 37.576 279.013 38.44C278.629 39.2933 278.095 39.9493 277.413 40.408C276.741 40.8667 275.973 41.096 275.109 41.096ZM275.109 40.04C275.759 40.04 276.33 39.8587 276.821 39.496C277.322 39.1333 277.711 38.6053 277.989 37.912C278.266 37.2187 278.405 36.3813 278.405 35.4C278.405 34.4187 278.266 33.5813 277.989 32.888C277.711 32.1947 277.322 31.6667 276.821 31.304C276.33 30.9413 275.759 30.76 275.109 30.76C274.458 30.76 273.882 30.9413 273.381 31.304C272.89 31.6667 272.506 32.1947 272.229 32.888C271.951 33.5813 271.812 34.4187 271.812 35.4C271.812 36.3813 271.951 37.2187 272.229 37.912C272.506 38.6053 272.89 39.1333 273.381 39.496C273.882 39.8587 274.458 40.04 275.109 40.04ZM285.702 41.096C284.838 41.096 284.065 40.8667 283.382 40.408C282.71 39.9493 282.182 39.2933 281.798 38.44C281.425 37.576 281.238 36.5627 281.238 35.4C281.238 34.2373 281.425 33.2293 281.798 32.376C282.182 31.512 282.71 30.8507 283.382 30.392C284.065 29.9333 284.838 29.704 285.702 29.704C286.566 29.704 287.334 29.9333 288.006 30.392C288.689 30.8507 289.222 31.512 289.606 32.376C289.99 33.2293 290.182 34.2373 290.182 35.4C290.182 36.5627 289.99 37.576 289.606 38.44C289.222 39.2933 288.689 39.9493 288.006 40.408C287.334 40.8667 286.566 41.096 285.702 41.096ZM285.702 40.04C286.353 40.04 286.924 39.8587 287.414 39.496C287.916 39.1333 288.305 38.6053 288.582 37.912C288.86 37.2187 288.998 36.3813 288.998 35.4C288.998 34.4187 288.86 33.5813 288.582 32.888C288.305 32.1947 287.916 31.6667 287.414 31.304C286.924 30.9413 286.353 30.76 285.702 30.76C285.052 30.76 284.476 30.9413 283.974 31.304C283.484 31.6667 283.1 32.1947 282.822 32.888C282.545 33.5813 282.406 34.4187 282.406 35.4C282.406 36.3813 282.545 37.2187 282.822 37.912C283.1 38.6053 283.484 39.1333 283.974 39.496C284.476 39.8587 285.052 40.04 285.702 40.04ZM300.1 41.096C299.268 41.096 298.468 40.9627 297.7 40.696C296.942 40.4293 296.356 40.0773 295.94 39.64L296.404 38.728C296.809 39.1333 297.348 39.464 298.02 39.72C298.692 39.9653 299.385 40.088 300.1 40.088C301.102 40.088 301.854 39.9067 302.356 39.544C302.857 39.1707 303.108 38.6907 303.108 38.104C303.108 37.656 302.969 37.2987 302.692 37.032C302.425 36.7653 302.094 36.5627 301.7 36.424C301.305 36.2747 300.756 36.1147 300.052 35.944C299.209 35.7307 298.537 35.528 298.036 35.336C297.534 35.1333 297.102 34.8293 296.74 34.424C296.388 34.0187 296.212 33.4693 296.212 32.776C296.212 32.2107 296.361 31.6987 296.66 31.24C296.958 30.7707 297.417 30.3973 298.036 30.12C298.654 29.8427 299.422 29.704 300.34 29.704C300.98 29.704 301.604 29.7947 302.212 29.976C302.83 30.1467 303.364 30.3867 303.812 30.696L303.411 31.64C302.942 31.3307 302.441 31.1013 301.908 30.952C301.374 30.792 300.852 30.712 300.34 30.712C299.358 30.712 298.617 30.904 298.116 31.288C297.625 31.6613 297.38 32.1467 297.38 32.744C297.38 33.192 297.513 33.5547 297.78 33.832C298.057 34.0987 298.398 34.3067 298.804 34.456C299.22 34.5947 299.774 34.7493 300.468 34.92C301.289 35.1227 301.95 35.3253 302.452 35.528C302.964 35.72 303.396 36.0187 303.748 36.424C304.1 36.8187 304.276 37.3573 304.276 38.04C304.276 38.6053 304.121 39.1227 303.812 39.592C303.513 40.0507 303.049 40.4187 302.42 40.696C301.79 40.9627 301.017 41.096 300.1 41.096ZM314.295 32.584V44.104H313.159V39.416C312.807 39.96 312.354 40.376 311.799 40.664C311.255 40.9413 310.642 41.08 309.959 41.08C309.159 41.08 308.439 40.904 307.799 40.552C307.17 40.1893 306.674 39.6827 306.311 39.032C305.949 38.3813 305.767 37.6347 305.767 36.792C305.767 35.96 305.949 35.2187 306.311 34.568C306.674 33.9173 307.175 33.416 307.815 33.064C308.455 32.7013 309.17 32.52 309.959 32.52C310.663 32.52 311.293 32.6693 311.847 32.968C312.413 33.2667 312.866 33.6933 313.207 34.248V32.584H314.295ZM310.055 40.072C310.642 40.072 311.17 39.9387 311.639 39.672C312.119 39.3947 312.493 39.0053 312.759 38.504C313.037 38.0027 313.175 37.432 313.175 36.792C313.175 36.152 313.037 35.5867 312.759 35.096C312.493 34.5947 312.119 34.2053 311.639 33.928C311.17 33.6507 310.642 33.512 310.055 33.512C309.458 33.512 308.919 33.6507 308.439 33.928C307.97 34.2053 307.597 34.5947 307.319 35.096C307.053 35.5867 306.919 36.152 306.919 36.792C306.919 37.432 307.053 38.0027 307.319 38.504C307.597 39.0053 307.97 39.3947 308.439 39.672C308.919 39.9387 309.458 40.072 310.055 40.072ZM323.071 30.824V35.224H328.863V36.248H323.071V41H321.887V29.8H329.567V30.824H323.071ZM336.204 40.488C335.99 40.68 335.724 40.8293 335.404 40.936C335.094 41.032 334.769 41.08 334.428 41.08C333.638 41.08 333.03 40.8667 332.604 40.44C332.177 40.0133 331.964 39.4107 331.964 38.632V33.544H330.46V32.584H331.964V30.744H333.1V32.584H335.66V33.544H333.1V38.568C333.1 39.0693 333.222 39.4533 333.468 39.72C333.724 39.976 334.086 40.104 334.556 40.104C334.79 40.104 335.014 40.0667 335.228 39.992C335.452 39.9173 335.644 39.8107 335.804 39.672L336.204 40.488Z" fill="white"/>
<g clip-path="url(#clip0_148_22)">
<path d="M304.149 0.146911L288.148 16.1484C287.834 16.4618 288.057 17.0002 288.5 17.0002H304.502C304.777 17.0002 305.001 16.7768 305.001 16.5012V0.499775C305.001 0.056491 304.463 -0.166964 304.149 0.146911ZM304.003 16.0022H289.705L292.243 13.4644L292.938 14.1595C293.036 14.2569 293.163 14.3056 293.291 14.3056C293.732 14.3056 293.959 13.769 293.644 13.4537L292.949 12.7587L294.372 11.3353L295.067 12.0304C295.165 12.1278 295.292 12.1765 295.42 12.1765C295.861 12.1765 296.088 11.6399 295.773 11.3246L295.078 10.6296L296.501 9.2062L297.196 9.90128C297.294 9.99872 297.421 10.0474 297.549 10.0474C297.99 10.0474 298.217 9.51083 297.902 9.19556L297.207 8.50051L298.63 7.07711L299.325 7.77219C299.423 7.86963 299.55 7.91833 299.678 7.91833C300.119 7.91833 300.346 7.38173 300.031 7.06646L299.336 6.37141L300.759 4.94802L301.454 5.6431C301.552 5.74054 301.68 5.78924 301.807 5.78924C302.248 5.78924 302.475 5.25264 302.16 4.93737L301.465 4.24232L304.003 1.70448V16.0022H304.003Z" fill="white"/>
<path d="M300.921 8.39685L296.397 12.9212C296.084 13.2346 296.306 13.773 296.75 13.773H301.274C301.55 13.773 301.773 13.5496 301.773 13.274V8.74971C301.773 8.30643 301.235 8.08298 300.921 8.39685ZM300.775 12.775H297.955L300.775 9.95441V12.775Z" fill="white"/>
</g>
<defs>
<clipPath id="clip0_148_22">
<rect width="17" height="17" fill="white" transform="translate(288)"/>
</clipPath>
</defs>
</svg>
